<?xml version="1.0" encoding="iso-8859-1"?>
<!-- Generator: Adobe Illustrator 19.0.0, SVG Export Plug-In . SVG Version: 6.00 Build 0)  -->
<svg version="1.1" id="Layer_1" xmlns="http://www.w3.org/2000/svg" xmlns:xlink="http://www.w3.org/1999/xlink" x="0px" y="0px"
	 viewBox="0 0 512 512" style="enable-background:new 0 0 512 512;" xml:space="preserve">
<g transform="translate(1 1)">
	<g>
		<g>
			<path d="M435.178,374.9c47.987-40.164,75.635-99.439,75.635-162.567C510.813,94.573,415.24-1,297.48-1
				c-63.329,0-122.009,27.826-162.838,75.36c-7.808-7.954-16.003-14.809-24.042-19.04C94.387,46.787,73.907,50.2,61.107,63
				L39.773,84.333C-2.893,127-12.28,176.493,13.32,231.107c8.533,17.92,21.333,35.84,37.547,52.053L225.8,458.093
				c13.653,13.653,27.307,24.747,41.813,32.427C291.507,504.173,315.4,511,337.587,511c31.573,0,61.44-13.653,87.893-40.107
				l21.333-22.187c13.653-12.8,16.213-33.28,7.68-49.493C450.214,391.081,443.25,382.789,435.178,374.9z M297.48,16.067
				c108.373,0,196.267,87.893,196.267,196.267c0,58.818-25.548,113.377-71.537,150.92c-21.796-18.174-45.485-32.099-47.076-33.16
				c-7.079-4.13-14.973-6.217-22.274-6.268c-3.233-0.038-6.35,0.344-9.299,1.148c-6.827,1.707-12.8,5.973-17.067,12.8
				c-8.533,11.093-19.627,23.04-22.187,24.747c-20.48,13.653-36.693,11.947-53.76-5.12l-89.828-90.616
				c-0.419-0.589-0.91-1.117-1.479-1.544c0,0-0.112-0.092-0.316-0.266l-5.657-5.707c-17.067-17.92-18.773-33.28-5.12-53.76
				c2.56-2.56,14.507-13.653,24.747-22.187c1.185-0.846,2.333-1.762,3.431-2.736c1.897-1.509,3.511-3.257,4.831-5.19
				c2.108-2.789,3.719-5.865,4.538-9.141c2.56-9.387,0-20.48-5.973-31.573c-1.061-1.591-14.986-25.28-33.16-47.076
				C184.103,41.615,238.662,16.067,297.48,16.067z M434.013,437.613l-21.333,21.333c-40.107,40.107-85.333,46.08-137.387,17.067
				c-12.8-6.827-25.6-17.067-37.547-29.013L62.813,271.213c-15.36-15.36-26.453-31.573-34.133-47.787
				C6.493,175.64,14.173,133.827,51.72,96.28l21.333-21.333c7.68-7.68,19.627-9.387,28.16-4.267
				c28.16,14.507,62.293,71.68,62.293,72.533c4.267,6.827,5.973,13.653,4.267,18.773c-0.853,2.56-2.56,5.12-5.973,6.827
				l-0.853,0.853c-6.827,6.827-24.747,21.333-28.16,26.453c-4.953,7.312-8.334,14.557-10.158,21.703
				c-5.89-11.835-10.554-25.481-12.029-40.476c-0.853-5.12-4.267-8.533-9.387-7.68c-5.12,0.853-8.533,5.12-7.68,9.387
				c5.973,59.733,52.907,98.133,54.613,99.84c0,0,0,0,0,0l90.453,90.453c0.653,0.653,1.307,1.284,1.962,1.903
				c0.186,0.225,0.385,0.444,0.598,0.657c0.853,1.707,39.253,39.253,98.133,45.227h0.853c4.267,0,7.68-3.413,8.533-7.68
				c0-5.12-3.413-8.533-7.68-9.387c-17.932-1.764-33.938-7.072-47.219-13.274c6.702-1.989,13.452-5.294,19.912-9.766
				c5.973-3.413,20.48-20.48,26.453-28.16l0.853-0.853c1.707-3.413,3.413-5.12,6.827-5.973c0.183-0.061,0.374-0.108,0.561-0.161
				c4.928-0.367,11.141,1.319,17.359,4.427c0,0,58.027,34.133,72.533,62.293C443.4,417.987,441.693,429.933,434.013,437.613z"/>
			<path d="M297.48,58.733c5.12,0,8.533-3.413,8.533-8.533V33.133c0-5.12-3.413-8.533-8.533-8.533s-8.533,3.413-8.533,8.533V50.2
				C288.947,55.32,292.36,58.733,297.48,58.733z"/>
			<path d="M459.613,220.867h17.067c5.12,0,8.533-3.413,8.533-8.533c0-5.12-3.413-8.533-8.533-8.533h-17.067
				c-5.12,0-8.533,3.413-8.533,8.533C451.08,217.453,454.493,220.867,459.613,220.867z"/>
			<path d="M411.827,106.52c2.56,0,4.267-0.853,5.973-2.56l11.947-11.947c3.413-3.413,3.413-8.533,0-11.947
				c-3.413-3.413-8.533-3.413-11.947,0l-11.947,11.947c-3.413,3.413-3.413,8.533,0,11.947
				C407.56,105.667,409.267,106.52,411.827,106.52z"/>
			<path d="M417.8,344.6c1.707,1.707,3.413,2.56,5.973,2.56s5.12,0,5.973-2.56c3.413-3.413,3.413-8.533,0-11.947L417.8,320.707
				c-3.413-3.413-8.533-3.413-11.947,0c-3.413,3.413-3.413,8.533,0,11.947L417.8,344.6z"/>
			<path d="M189.107,103.96c3.413-3.413,3.413-8.533,0-11.947L177.16,80.067c-3.413-3.413-8.533-3.413-11.947,0
				s-3.413,8.533,0,11.947l11.947,11.947c1.707,1.707,3.413,2.56,5.973,2.56C184.84,106.52,187.4,105.667,189.107,103.96z"/>
			<path d="M297.48,220.867h59.733c5.12,0,8.533-3.413,8.533-8.533c0-5.12-3.413-8.533-8.533-8.533h-51.2V92.867
				c0-5.12-3.413-8.533-8.533-8.533s-8.533,3.413-8.533,8.533v119.467C288.947,217.453,292.36,220.867,297.48,220.867z"/>
		</g>
	</g>
</g>
<g>
</g>
<g>
</g>
<g>
</g>
<g>
</g>
<g>
</g>
<g>
</g>
<g>
</g>
<g>
</g>
<g>
</g>
<g>
</g>
<g>
</g>
<g>
</g>
<g>
</g>
<g>
</g>
<g>
</g>
</svg>
