<?xml version="1.0" encoding="iso-8859-1"?>
<!-- Generator: Adobe Illustrator 19.0.0, SVG Export Plug-In . SVG Version: 6.00 Build 0)  -->
<svg version="1.1" id="Capa_1" xmlns="http://www.w3.org/2000/svg" xmlns:xlink="http://www.w3.org/1999/xlink" x="0px" y="0px"
	 viewBox="0 0 511.846 511.846" style="enable-background:new 0 0 511.846 511.846;" xml:space="preserve">
<g>
	<g>
		<path d="M482.057,68.113c-124.826,0-180.642-64.563-181.18-65.195c-3.243-3.891-9.865-3.891-13.107,0
			c-0.546,0.648-55.782,65.195-181.18,65.195c-4.71,0-8.533,3.823-8.533,8.533v162.138c0-4.719-3.823-8.533-8.533-8.533H29.79
			c-4.71,0-8.533,3.814-8.533,8.533v170.667c0,4.71,3.823,8.533,8.533,8.533h59.733c4.71,0,8.533-3.823,8.533-8.533v-8.538h47.703
			c16.424,25.015,36.365,46.842,59.356,64.905c27.025,21.239,56.218,36.608,86.776,45.67c0.802,0.239,1.613,0.358,2.432,0.358
			s1.63-0.12,2.432-0.358c30.558-9.062,59.75-24.431,86.775-45.67c67.038-52.676,107.059-137.284,107.059-226.313V76.646
			C490.59,71.936,486.767,68.113,482.057,68.113z M98.181,247.97h-0.125v-8.465C98.057,242.33,98.101,245.152,98.181,247.97z
			 M80.99,400.917H38.323v-153.6H80.99v9.186V392.38V400.917z M98.057,265.003h0.35c1.323,0.111,13.039,0.904,24.798-9.788
			c15.462-14.063,23.305-40.721,23.305-79.215c0-10.402,1.92-22.554,7.33-22.554h1.152c8.021,0,18.748,13.892,20.506,26.547
			c2.227,16.06,2.782,40.832-0.469,57.114c-0.119,0.555-0.171,1.109-0.171,1.673v17.067c0,4.71,3.823,8.533,8.533,8.533h68.267
			c4.702,0,8.533,3.831,8.533,8.533c0,4.702-3.831,8.533-8.533,8.533H183.39c-4.71,0-8.533,3.823-8.533,8.533
			c0,4.71,3.823,8.533,8.533,8.533h68.267c4.702,0,8.533,3.831,8.533,8.533s-3.831,8.533-8.533,8.533H183.39
			c-4.71,0-8.533,3.823-8.533,8.533s3.823,8.533,8.533,8.533h68.267c4.702,0,8.533,3.831,8.533,8.533s-3.831,8.533-8.533,8.533
			H183.39c-4.71,0-8.533,3.823-8.533,8.533s3.823,8.533,8.533,8.533h68.267c4.702,0,8.533,3.831,8.533,8.533
			c0,4.702-3.831,8.533-8.533,8.533h-153.6V265.003z M270.72,358.246c4.062-4.531,6.536-10.513,6.536-17.067
			c0-6.554-2.475-12.536-6.536-17.067c4.062-4.531,6.536-10.513,6.536-17.067c0-6.554-2.475-12.535-6.536-17.067
			c4.062-4.531,6.536-10.513,6.536-17.067c0-14.114-11.486-25.6-25.6-25.6h-59.733v-7.706c3.61-18.935,2.799-45.269,0.478-61.961
			c-2.136-15.41-12.585-32.204-26.078-38.592v-6.944c58.871-8.713,101.333-29.397,128-46.669
			c26.667,17.271,69.129,37.956,128,46.669v107.392c0,68.258-30.268,132.796-80.973,172.646
			c-15.002,11.785-30.805,21.146-47.027,27.87c-16.222-6.724-32.026-16.085-47.019-27.87c-4.474-3.515-8.827-7.273-13.044-11.236
			h17.396c14.114,0,25.6-11.486,25.6-25.6C277.257,368.759,274.782,362.778,270.72,358.246z M473.523,239.505
			c0,83.831-37.581,163.422-100.54,212.898c-24.602,19.337-51.055,33.459-78.66,41.993c-27.605-8.533-54.059-22.656-78.66-41.993
			c-18.621-14.633-35.119-31.913-49.206-51.49h43.893c8.202,9.026,17.061,17.31,26.407,24.659
			c17.254,13.559,35.575,24.192,54.451,31.59c0.998,0.393,2.057,0.589,3.115,0.589c1.058,0,2.116-0.196,3.115-0.589
			c18.867-7.398,37.188-18.031,54.46-31.59c54.784-43.059,87.492-112.623,87.492-186.069V124.678c0-4.301-3.191-7.919-7.458-8.465
			c-63.155-8.055-107.085-30.583-132.813-48.068c-2.893-1.971-6.699-1.971-9.591,0c-25.728,17.485-69.658,40.013-132.813,48.068
			c-4.267,0.546-7.458,4.164-7.458,8.465v12.16c-8.885,1.83-19.814,10.008-19.814,39.162c0,36.07-7.234,54.003-14.319,62.916V85.086
			c104.465-2.321,160.981-46.908,179.2-64.393c18.219,17.485,74.735,62.071,179.2,64.393V239.505z"/>
	</g>
</g>
<g>
</g>
<g>
</g>
<g>
</g>
<g>
</g>
<g>
</g>
<g>
</g>
<g>
</g>
<g>
</g>
<g>
</g>
<g>
</g>
<g>
</g>
<g>
</g>
<g>
</g>
<g>
</g>
<g>
</g>
</svg>
