<?xml version="1.0" encoding="iso-8859-1"?>
<!-- Generator: Adobe Illustrator 19.0.0, SVG Export Plug-In . SVG Version: 6.00 Build 0)  -->
<svg version="1.1" id="Capa_1" xmlns="http://www.w3.org/2000/svg" xmlns:xlink="http://www.w3.org/1999/xlink" x="0px" y="0px"
	 viewBox="0 0 512.006 512.006" style="enable-background:new 0 0 512.006 512.006;" xml:space="preserve">
<g>
	<g>
		<g>
			<path d="M327.238,82.512c-70.212-29.029-150.998-12.877-204.651,40.917s-69.593,134.622-40.38,204.758
				c29.213,70.135,97.818,115.749,173.794,115.55c103.498-0.252,187.261-84.235,187.242-187.733
				C443.244,180.027,397.45,111.541,327.238,82.512z M320.707,413.726c-63.834,26.387-137.28,11.695-186.052-37.217
				s-63.252-122.4-36.68-186.158c26.571-63.758,88.954-105.213,158.027-105.014c94.077,0.242,170.205,76.59,170.175,170.667
				C426.177,325.076,384.542,387.339,320.707,413.726z"/>
			<path d="M268.977,224.461c-12.763-5.279-27.45-2.346-37.207,7.431c-9.757,9.777-12.659,24.47-7.354,37.222
				c5.305,12.752,17.773,21.051,31.585,21.022c18.823-0.041,34.061-15.31,34.063-34.133
				C290.064,242.191,281.74,229.74,268.977,224.461z M262.446,271.777c-6.386,2.637-13.732,1.164-18.608-3.732
				c-4.875-4.896-6.318-12.248-3.654-18.623c2.664-6.375,8.909-10.515,15.818-10.486c9.402,0.03,17.005,7.665,16.996,17.067
				C272.998,262.912,268.832,269.14,262.446,271.777z"/>
			<path d="M504.952,265.361l-27.7-4.9c0.025-1.718,0.033-3.454,0.025-5.208l14.533-9.037c11.872-7.336,18.052-21.185,15.584-34.921
				l-4.384-24.95c-0.819-4.644-5.247-7.746-9.892-6.929l-27.72,4.903c-0.557-1.632-1.131-3.261-1.728-4.886l10.581-13.493
				c8.654-10.954,9.738-26.083,2.733-38.158l-12.633-21.942c-1.13-1.964-2.996-3.397-5.185-3.984
				c-2.189-0.586-4.521-0.277-6.482,0.859l-24.352,14.096c-1.052-1.311-2.117-2.612-3.198-3.897
				c-0.03-0.037-0.061-0.075-0.092-0.111l5.333-16.275c4.394-13.249,0.247-27.838-10.458-36.796l-19.355-16.283
				c-1.735-1.459-3.979-2.169-6.237-1.971c-2.258,0.198-4.345,1.286-5.8,3.025l-18.075,21.602c-1.47-0.89-2.95-1.763-4.441-2.618
				l-0.537-17.134c-0.383-13.953-9.266-26.25-22.391-31l-23.737-8.667c-2.128-0.775-4.478-0.673-6.531,0.284
				c-2.053,0.957-3.641,2.691-4.415,4.82l-9.633,26.542c-0.181-0.037-0.357-0.07-0.537-0.106c-0.397-0.077-0.793-0.16-1.19-0.235
				c-1.121-0.218-2.233-0.429-3.327-0.622l-6.346-15.904c-5.119-12.984-17.673-21.502-31.629-21.463h-25.263
				c-4.713,0-8.533,3.82-8.533,8.533v28.25c-1.724,0.265-3.417,0.546-5.079,0.842l-11.379-12.763
				c-9.247-10.454-23.964-14.158-37.058-9.329l-23.742,8.663c-4.423,1.614-6.703,6.504-5.096,10.929l9.64,26.562
				c-1.294,0.715-2.587,1.433-3.869,2.176c-0.206,0.12-0.408,0.244-0.614,0.364l-15.057-8.094
				c-12.271-6.65-27.365-5.086-38.012,3.938l-19.35,16.283c-3.596,3.029-4.066,8.397-1.05,12.004l18.092,21.624
				c-1.143,1.311-2.274,2.631-3.385,3.966l-16.861-2.436c-13.807-2.037-27.45,4.603-34.367,16.725l-12.629,21.942
				c-2.347,4.077-0.951,9.285,3.121,11.642l24.336,14.093c-0.631,1.633-1.24,3.275-1.832,4.922l-16.654,3.489
				c-13.667,2.825-24.211,13.729-26.575,27.483l-4.388,24.95c-0.818,4.639,2.278,9.063,6.917,9.883l27.629,4.886
				c-0.035,1.758-0.049,3.518-0.042,5.28l-14.437,8.98C8.323,273.127,2.141,286.977,4.61,300.715l4.388,24.95
				c0.392,2.231,1.654,4.214,3.51,5.514c1.856,1.299,4.151,1.807,6.382,1.411l27.665-4.894c0.563,1.65,1.146,3.288,1.745,4.919
				L37.748,346.07c-8.649,10.955-9.731,26.08-2.729,38.154l12.633,21.942c1.131,1.964,2.998,3.397,5.187,3.983
				c2.189,0.586,4.522,0.278,6.483-0.858l24.363-14.104c1.096,1.375,2.183,2.712,3.275,4.017l-5.333,16.275
				c-4.396,13.249-0.249,27.84,10.458,36.796l19.355,16.283c1.735,1.459,3.979,2.169,6.237,1.971c2.258-0.198,4.345-1.286,5.8-3.025
				l18.088-21.617c1.49,0.911,2.966,1.788,4.429,2.629l0.538,17.138c0.383,13.953,9.266,26.251,22.391,31l23.738,8.667
				c2.128,0.775,4.478,0.673,6.531-0.284c2.053-0.957,3.641-2.691,4.415-4.82l9.629-26.529c1.451,0.289,2.906,0.563,4.366,0.823
				c0.23,0.042,0.464,0.087,0.693,0.127l6.346,15.904c5.119,12.984,17.673,21.502,31.629,21.463h25.263
				c4.713,0,8.533-3.821,8.533-8.533v-28.144c1.721-0.269,3.439-0.556,5.152-0.866l11.307,12.681
				c9.247,10.454,23.964,14.158,37.058,9.329l23.742-8.663c4.423-1.614,6.703-6.504,5.096-10.929l-9.634-26.545
				c1.294-0.719,2.583-1.446,3.864-2.192c0.206-0.12,0.406-0.246,0.611-0.366l15.06,8.095c12.271,6.643,27.36,5.08,38.008-3.938
				l19.35-16.283c3.602-3.026,4.072-8.399,1.05-12.004l-18.092-21.625c1.108-1.276,2.225-2.6,3.35-3.971l16.9,2.442
				c13.798,1.995,27.417-4.635,34.358-16.725l12.633-21.942c2.352-4.076,0.957-9.286-3.117-11.642l-24.392-14.125
				c0.542-1.383,1.067-2.779,1.575-4.187c0.083-0.229,0.167-0.458,0.242-0.688l16.725-3.504
				c13.669-2.831,24.213-13.736,26.583-27.492l4.383-24.946C512.688,270.601,509.589,266.181,504.952,265.361z M487.677,197.711
				l2.908,16.538c1.236,6.872-1.853,13.802-7.792,17.475l-6.47,4.024c-1.057-11.707-3.048-23.398-6.012-34.965L487.677,197.711z
				 M362.973,430.441c-0.144,0.077-0.293,0.142-0.433,0.228c-4.588,2.808-9.367,5.483-14.2,7.946
				c-0.223,0.114-0.438,0.238-0.647,0.368c-20.298,10.224-42.011,16.913-64.222,19.935c-0.614,0.083-1.233,0.164-1.859,0.243
				c-21.078,2.671-42.575,2.058-63.709-1.96c-2.621-0.515-5.338-1.101-8.189-1.769c-0.142-0.033-0.287-0.049-0.43-0.075
				c-2.078-0.489-4.152-0.999-6.22-1.555c-15.706-4.221-30.706-10.279-44.75-17.943c-4.464-2.435-8.991-5.155-13.837-8.319
				c-0.245-0.16-0.496-0.303-0.75-0.435c-15.209-10.031-29.037-22.076-41.091-35.832c-0.225-0.258-0.45-0.524-0.674-0.785
				c-0.608-0.701-1.21-1.409-1.809-2.119c-2.444-2.92-4.897-6.027-7.434-9.421c-0.164-0.219-0.336-0.429-0.517-0.628
				c-4.706-6.348-9.072-12.987-13.046-19.909c-5.053-8.796-9.372-17.813-12.997-26.977c-0.057-0.177-0.101-0.357-0.17-0.532
				c-2.125-5.421-3.888-10.458-5.383-15.392c-0.015-0.049-0.036-0.096-0.052-0.145c-26.37-87.252,8.176-184.09,88.488-233.809
				c0.14-0.075,0.285-0.138,0.422-0.222c4.588-2.808,9.367-5.483,14.2-7.946c0.222-0.113,0.436-0.237,0.645-0.367
				c20.307-10.229,42.029-16.919,64.25-19.939c0.596-0.08,1.197-0.159,1.804-0.236c21.086-2.675,42.593-2.064,63.735,1.956
				c2.622,0.515,5.339,1.102,8.191,1.77c0.17,0.039,0.34,0.065,0.51,0.093c2.052,0.484,4.1,0.988,6.142,1.537
				c15.687,4.216,30.669,10.263,44.698,17.914c4.48,2.442,9.023,5.172,13.888,8.347c0.242,0.157,0.491,0.299,0.743,0.429
				c15.109,9.964,28.853,21.919,40.853,35.56c0.672,0.765,1.344,1.55,2.017,2.343c0.17,0.199,0.341,0.398,0.51,0.598
				c2.499,2.973,5.02,6.159,7.636,9.661c0.169,0.227,0.348,0.443,0.535,0.648c4.701,6.342,9.062,12.974,13.032,19.889
				c5.053,8.796,9.372,17.813,12.997,26.976c0.057,0.177,0.101,0.357,0.17,0.532c2.108,5.379,3.875,10.417,5.383,15.396
				c0.016,0.053,0.039,0.103,0.056,0.156C477.818,283.9,443.274,380.725,362.973,430.441z M453.836,121.769l8.367,14.529
				c3.506,6.047,2.961,13.622-1.375,19.104l-4.698,5.989c-2.59-5.503-5.411-10.947-8.494-16.314
				c-2.846-4.957-5.878-9.779-9.076-14.468L453.836,121.769z M396.127,62.015l12.809,10.775c5.352,4.49,7.422,11.79,5.225,18.421
				l-2.362,7.204c-8.384-8.335-17.42-15.971-27.01-22.849L396.127,62.015z M321.522,25.649l15.708,5.737
				c6.559,2.377,10.995,8.526,11.183,15.5l0.239,7.623c-10.65-4.918-21.741-9-33.18-12.195L321.522,25.649z M255.735,17.07
				c6.965-0.014,13.227,4.24,15.778,10.721l2.846,7.133c-11.793-0.982-23.615-1.013-35.354-0.106V17.07H255.735z M158.535,37.311
				l15.742-5.742c6.527-2.399,13.857-0.552,18.467,4.654l5.116,5.737c-11.348,3.097-22.48,7.095-33.279,12.005L158.535,37.311z
				 M102.66,73.132c5.306-4.495,12.827-5.274,18.942-1.963l6.739,3.623c-9.748,6.896-18.827,14.488-27.186,22.688L89.823,83.936
				L102.66,73.132z M41.16,151.32l8.383-14.562c3.453-6.039,10.249-9.351,17.133-8.35l7.508,1.084
				c-6.752,9.749-12.697,20.001-17.791,30.65L41.16,151.32z M18.414,231.324l2.913-16.554c1.177-6.871,6.441-12.321,13.266-13.737
				l7.354-1.54c-3.002,11.4-5.103,23.063-6.261,34.884L18.414,231.324z M21.418,297.757c-1.237-6.872,1.853-13.802,7.792-17.475
				l6.358-3.954c1.077,11.64,3.094,23.307,6.076,34.904l-17.318,3.062L21.418,297.757z M58.173,390.236l-8.363-14.529
				c-3.508-6.045-2.968-13.618,1.362-19.104l4.671-5.953c5.08,10.783,10.98,21.051,17.614,30.737L58.173,390.236z M115.877,449.99
				l-12.809-10.775c-5.357-4.486-7.429-11.79-5.225-18.421l2.39-7.293c8.399,8.334,17.445,15.978,27.045,22.863L115.877,449.99z
				 M190.481,486.357l-15.708-5.737c-6.559-2.377-10.995-8.526-11.183-15.5l-0.241-7.696c10.658,4.94,21.751,9.048,33.183,12.263
				L190.481,486.357z M272.998,494.936h-16.729c-6.965,0.015-13.227-4.24-15.779-10.721l-2.815-7.057
				c6.172,0.526,12.404,0.798,18.686,0.807c5.564-0.005,11.113-0.229,16.637-0.654V494.936z M353.469,474.694l-15.742,5.742
				c-6.526,2.407-13.861,0.558-18.467-4.654l-5.03-5.64c11.357-3.115,22.465-7.139,33.211-12.051L353.469,474.694z M409.343,438.873
				c-5.304,4.5-12.828,5.28-18.942,1.963l-6.776-3.642c9.775-6.931,18.852-14.531,27.182-22.717l11.368,13.593L409.343,438.873z
				 M470.844,360.686l-8.383,14.562c-3.45,6.046-10.254,9.36-17.142,8.35l-7.622-1.101c6.765-9.789,12.702-20.063,17.778-30.712
				L470.844,360.686z M490.686,297.232c-1.185,6.872-6.448,12.322-13.275,13.746l-7.56,1.583
				c3.018-11.453,5.126-23.146,6.294-34.963l17.441,3.083L490.686,297.232z"/>
		</g>
	</g>
</g>
<g>
</g>
<g>
</g>
<g>
</g>
<g>
</g>
<g>
</g>
<g>
</g>
<g>
</g>
<g>
</g>
<g>
</g>
<g>
</g>
<g>
</g>
<g>
</g>
<g>
</g>
<g>
</g>
<g>
</g>
</svg>
